<?xml version="1.0" standalone="no"?>
<!DOCTYPE svg PUBLIC "-//W3C//DTD SVG 20010904//EN"
 "http://www.w3.org/TR/2001/REC-SVG-20010904/DTD/svg10.dtd">
<svg version="1.0" xmlns="http://www.w3.org/2000/svg"
 width="512.000000pt" height="512.000000pt" viewBox="0 0 512.000000 512.000000"
 preserveAspectRatio="xMidYMid meet">

<g transform="translate(0.000000,512.000000) scale(0.100000,-0.100000)"
fill="#000000" stroke="none">
<path d="M1421 4040 c-190 -28 -323 -146 -402 -355 l-31 -82 -84 -13 c-116
-17 -163 -42 -194 -105 -24 -48 -25 -58 -28 -285 -6 -388 8 -419 208 -459 50
-11 94 -21 97 -24 3 -4 20 -42 38 -85 61 -148 147 -251 250 -298 99 -45 179
-55 460 -57 332 -2 388 10 575 129 108 68 180 94 263 94 91 0 152 -22 259 -92
164 -108 305 -142 593 -141 215 0 337 21 453 78 84 42 130 92 249 271 l75 112
56 7 c105 13 173 57 192 124 14 50 13 546 -1 596 -22 80 -101 128 -230 140
l-67 6 -31 84 c-68 178 -183 293 -346 344 -44 13 -187 16 -1175 17 -619 1
-1149 -2 -1179 -6z m2259 -121 c137 -21 239 -93 291 -204 47 -99 50 -142 47
-598 -3 -412 -4 -423 -26 -478 -45 -113 -112 -176 -226 -216 -45 -16 -89 -18
-351 -18 -289 0 -303 1 -373 24 -40 13 -97 39 -127 57 -30 19 -81 50 -112 69
-77 48 -149 67 -244 67 -108 -1 -198 -34 -319 -117 -152 -104 -158 -105 -502
-105 -161 0 -313 5 -337 11 -158 36 -264 152 -290 319 -14 83 -14 772 -1 863
26 175 142 298 310 326 79 13 2178 13 2260 0z m-2716 -465 c14 -5 16 -41 16
-299 l0 -292 -31 -7 c-106 -21 -134 0 -144 107 -8 89 -2 435 9 458 4 9 17 21
29 27 24 12 97 15 121 6z m3364 -254 c2 -140 0 -270 -3 -288 -9 -48 -42 -66
-110 -57 l-55 6 0 300 0 300 83 -3 82 -3 3 -255z"/>
<path d="M1775 3321 c-717 -659 -659 -591 -609 -701 48 -104 156 -180 281
-195 l48 -6 460 632 c253 348 497 683 543 746 l82 113 -82 -1 -83 0 -640 -588z"/>
<path d="M820 1833 c0 -5 56 -175 123 -378 l124 -370 58 0 58 0 124 370 c67
203 123 373 123 378 0 4 -32 7 -72 5 l-71 -3 -18 -55 c-10 -30 -46 -143 -80
-250 -34 -107 -64 -188 -67 -180 -4 8 -40 121 -82 250 l-75 235 -73 3 c-39 2
-72 -1 -72 -5z"/>
<path d="M1528 1834 c-5 -4 -8 -175 -8 -381 l0 -373 75 0 75 0 0 150 0 150 43
0 42 0 81 -148 82 -147 86 -3 c47 -1 86 -1 86 2 0 2 -39 71 -86 152 -47 82
-81 150 -76 152 34 11 92 67 111 105 36 75 29 195 -17 265 -8 13 -36 35 -61
50 -45 26 -50 27 -236 30 -104 2 -193 0 -197 -4z m362 -154 c24 -24 34 -62 26
-95 -14 -55 -37 -65 -146 -65 l-100 0 0 90 0 90 100 0 c86 0 103 -3 120 -20z"/>
<path d="M2510 1461 l0 -381 70 0 70 0 0 145 0 145 98 0 c119 0 186 18 231 62
44 43 62 80 68 144 7 70 -11 133 -53 182 -55 65 -92 74 -301 80 l-183 4 0
-381z m361 210 c39 -39 41 -100 4 -136 -22 -23 -31 -25 -125 -25 l-100 0 0 95
0 95 96 0 c92 0 97 -1 125 -29z"/>
<path d="M3177 1833 c-4 -3 -7 -174 -7 -380 l0 -373 75 0 75 0 0 151 0 150 42
-3 43 -3 83 -147 83 -148 85 0 c46 0 84 2 84 4 0 2 -39 70 -86 152 -48 81 -82
150 -76 152 6 2 28 16 50 31 52 38 75 90 80 179 4 62 1 79 -22 125 -29 60 -76
96 -139 108 -51 10 -361 12 -370 2z m356 -147 c9 -7 22 -27 28 -44 13 -38 -3
-97 -31 -112 -10 -6 -62 -10 -114 -10 l-96 0 0 90 0 90 98 0 c65 -1 103 -5
115 -14z"/>
<path d="M4005 1816 c-28 -12 -65 -40 -84 -61 -62 -71 -66 -90 -66 -295 0
-174 1 -188 24 -238 91 -201 403 -204 502 -5 23 45 24 58 24 238 0 210 -4 229
-66 300 -51 57 -118 85 -209 85 -58 0 -87 -6 -125 -24z m193 -136 c54 -33 64
-71 60 -241 -3 -170 -13 -193 -86 -219 -37 -13 -47 -13 -84 0 -73 26 -83 49
-86 219 -4 170 6 208 60 241 18 11 49 20 68 20 19 0 50 -9 68 -20z"/>
</g>
</svg>
