<?xml version="1.0" standalone="no"?>
<!DOCTYPE svg PUBLIC "-//W3C//DTD SVG 20010904//EN"
 "http://www.w3.org/TR/2001/REC-SVG-20010904/DTD/svg10.dtd">
<svg version="1.0" xmlns="http://www.w3.org/2000/svg"
 width="1000.000000pt" height="1000.000000pt" viewBox="0 0 1000.000000 1000.000000"
 preserveAspectRatio="xMidYMid meet">
<metadata>
Created by potrace 1.14, written by Peter Selinger 2001-2017
</metadata>
<g transform="translate(0.000000,1000.000000) scale(0.100000,-0.100000)"
fill="#000000" stroke="none">
<path d="M2918 7905 c-2 -2 -38 -5 -80 -9 -82 -6 -176 -26 -249 -51 -65 -23
-159 -68 -159 -77 0 -4 -5 -8 -12 -8 -19 0 -119 -80 -181 -145 -98 -103 -181
-241 -242 -405 -44 -120 -72 -177 -87 -177 -15 -1 -90 -10 -145 -19 -212 -32
-323 -88 -373 -184 -17 -34 -31 -79 -46 -150 -11 -53 -14 -916 -3 -985 25
-159 67 -228 172 -280 39 -19 83 -37 97 -40 14 -2 45 -9 70 -15 25 -5 80 -14
123 -20 118 -15 127 -22 172 -137 46 -117 126 -276 179 -356 47 -71 155 -182
216 -223 89 -59 205 -111 291 -130 103 -22 97 -21 154 -29 100 -13 134 -15
350 -21 420 -12 615 -9 730 11 170 30 331 78 427 127 24 12 99 58 168 103 212
139 351 194 511 202 190 11 341 -46 591 -223 105 -74 265 -144 388 -168 14 -3
57 -12 96 -20 39 -9 87 -18 107 -21 21 -3 52 -7 70 -10 29 -4 103 -11 217 -21
49 -4 337 -4 410 0 63 4 190 16 220 21 14 2 45 7 70 11 25 3 70 12 100 20 30
8 67 17 82 19 57 10 206 69 270 106 124 73 219 182 426 489 177 262 158 241
226 246 213 15 340 83 403 213 24 51 27 70 32 211 8 198 5 850 -3 912 -16 125
-89 231 -195 286 -51 26 -76 35 -141 49 -24 5 -179 20 -232 22 -19 1 -29 9
-36 29 -93 245 -120 304 -186 407 -64 98 -148 189 -229 251 -107 80 -282 153
-407 170 -25 3 -54 9 -65 12 -19 5 -4291 12 -4297 7z m4069 -235 c144 -3 243
-16 343 -47 302 -91 478 -328 518 -698 3 -33 6 -382 6 -775 0 -751 -4 -821
-46 -960 -82 -266 -272 -430 -563 -486 -71 -13 -154 -18 -385 -20 -162 -1
-353 -2 -425 -3 -197 -2 -279 7 -430 46 -173 45 -270 91 -455 219 -196 134
-329 178 -540 178 -139 -1 -256 -25 -375 -78 -27 -13 -65 -29 -82 -37 -18 -8
-33 -17 -33 -21 0 -5 -6 -8 -12 -8 -7 0 -65 -38 -129 -83 -63 -46 -140 -97
-170 -114 -63 -35 -182 -78 -257 -91 -75 -13 -1080 -8 -1162 6 -353 62 -572
289 -628 651 -9 61 -9 1546 0 1636 28 270 167 485 382 591 148 72 216 86 466
91 118 2 221 5 229 6 22 3 3584 0 3748 -3z m-5119 -919 l42 -1 0 -579 c0 -544
-1 -580 -17 -585 -125 -35 -243 -26 -279 22 -40 51 -44 107 -44 582 0 379 2
430 20 485 17 53 92 83 195 78 22 -1 59 -2 83 -2z m6589 -128 c6 -624 1 -911
-18 -969 -24 -76 -98 -99 -236 -74 l-82 14 1 578 0 578 167 0 167 0 1 -127z"/>
<path d="M4691 7605 c-19 -16 -42 -37 -51 -45 -9 -8 -39 -35 -66 -60 -27 -25
-81 -74 -119 -110 -125 -116 -389 -358 -417 -382 -11 -9 -67 -61 -125 -115
-58 -54 -114 -105 -124 -114 -10 -9 -62 -56 -115 -105 -53 -49 -105 -96 -114
-104 -9 -8 -63 -58 -120 -110 -57 -52 -111 -102 -120 -110 -17 -15 -162 -147
-295 -270 -38 -35 -75 -69 -81 -75 -22 -20 -209 -191 -279 -254 -38 -36 -99
-92 -136 -125 -36 -34 -105 -98 -155 -143 -49 -44 -106 -97 -128 -116 l-38
-36 17 -70 c30 -124 114 -271 197 -347 115 -105 311 -184 458 -184 l39 0 242
333 c133 182 264 361 290 397 26 36 102 139 168 230 66 91 124 170 128 175 4
6 69 93 143 195 73 102 242 334 375 515 133 182 357 490 499 685 143 195 263
360 267 366 6 8 -36 11 -148 10 l-157 0 -35 -31z"/>
<path d="M7910 3581 c-188 -49 -325 -190 -371 -381 -19 -79 -20 -604 -1 -696
32 -161 131 -293 267 -358 39 -19 84 -37 100 -40 17 -4 41 -9 55 -12 50 -10
204 -4 263 12 165 42 290 153 348 305 31 80 32 95 36 396 4 230 1 309 -10 371
-40 210 -181 358 -388 408 -60 15 -235 12 -299 -5z m275 -288 c57 -30 95 -74
115 -132 14 -43 17 -91 15 -333 -1 -271 -2 -285 -23 -325 -48 -91 -117 -132
-224 -133 -83 0 -141 23 -190 78 -20 22 -43 60 -49 84 -19 64 -20 536 -2 608
30 120 120 182 253 176 41 -2 80 -10 105 -23z"/>
<path d="M1600 3580 c0 -3 74 -228 165 -500 91 -272 167 -502 169 -510 5 -18
133 -404 147 -441 10 -25 11 -25 119 -25 l109 0 246 737 c135 405 245 738 245
740 0 2 -64 4 -142 4 l-143 0 -52 -160 c-28 -88 -79 -248 -113 -355 -34 -107
-80 -249 -101 -314 -22 -66 -39 -126 -39 -133 0 -37 -19 -3 -44 77 -15 49 -38
122 -51 162 -12 40 -53 168 -90 283 -36 116 -83 262 -103 325 l-37 115 -143 0
c-78 0 -142 -2 -142 -5z"/>
<path d="M2976 3580 c-2 -3 -2 -336 -2 -740 l1 -735 137 -1 c117 -1 137 1 140
15 2 9 3 141 3 293 -1 187 2 279 9 281 6 2 44 3 85 3 l75 -1 165 -297 166
-297 168 -1 c92 0 167 2 167 5 0 6 -14 30 -178 315 -74 129 -143 247 -154 263
-18 26 -18 28 -1 33 174 59 276 218 275 429 -1 204 -92 351 -259 416 -56 21
-70 22 -426 24 -203 0 -370 -2 -371 -5z m696 -282 c69 -45 93 -159 53 -246
-35 -76 -56 -82 -282 -82 l-190 0 2 173 c2 94 3 172 4 173 0 0 88 0 194 0 164
-1 197 -4 219 -18z"/>
<path d="M4901 3580 c-4 -3 -7 -336 -6 -740 l0 -735 140 0 140 0 0 285 0 285
185 1 c268 2 361 27 465 125 92 87 133 196 129 344 -3 135 -42 231 -130 319
-44 44 -157 100 -224 112 -50 8 -687 12 -699 4z m649 -274 c109 -25 154 -192
79 -297 -37 -52 -77 -62 -259 -63 -91 -1 -172 0 -180 2 -13 3 -15 29 -14 185
1 100 2 182 3 182 213 0 344 -3 371 -9z"/>
<path d="M6196 3581 c-1 -3 -2 -337 -2 -741 l1 -735 140 0 140 0 0 295 0 295
84 0 85 0 27 -47 c16 -26 42 -73 60 -105 18 -32 70 -125 116 -207 45 -81 83
-150 83 -152 0 -3 12 -22 26 -43 l25 -39 165 -1 c90 0 164 2 164 4 0 8 -69
129 -216 382 -68 116 -124 217 -124 224 0 7 3 10 6 6 9 -8 109 48 147 82 142
129 172 419 64 604 -45 76 -142 148 -232 172 -35 9 -754 15 -759 6z m701 -287
c69 -52 89 -165 45 -250 -34 -67 -59 -74 -279 -74 l-188 0 0 168 c-1 92 3 170
7 173 5 3 94 5 198 5 175 -1 191 -2 217 -22z"/>
</g>
</svg>
